<?xml version="1.0" standalone="no"?>
<!DOCTYPE svg PUBLIC "-//W3C//DTD SVG 20010904//EN"
 "http://www.w3.org/TR/2001/REC-SVG-20010904/DTD/svg10.dtd">
<svg version="1.0" xmlns="http://www.w3.org/2000/svg"
 width="200.000000pt" height="200.000000pt" viewBox="0 0 200.000000 200.000000"
 preserveAspectRatio="xMidYMid meet">
<metadata>
Created by potrace 1.11, written by Peter Selinger 2001-2013
</metadata>
<g transform="translate(0.000000,200.000000) scale(0.100000,-0.100000)"
fill="#000000" stroke="none">
<path d="M487 1313 c-4 -3 -7 -19 -7 -35 l0 -28 115 0 115 0 0 -215 c0 -235
-5 -260 -55 -283 -52 -24 -110 -10 -161 39 l-32 31 -21 -30 -21 -30 40 -35
c97 -88 263 -68 311 37 17 37 19 69 19 299 l0 257 -148 0 c-82 0 -152 -3 -155
-7z"/>
<path d="M1118 1018 c-76 -167 -140 -311 -144 -320 -5 -15 0 -18 34 -18 l39 0
38 85 38 85 169 0 169 0 39 -85 39 -85 41 0 c22 0 40 1 40 3 0 2 -65 144 -144
317 l-144 315 -39 3 -38 2 -137 -302z m247 49 c36 -81 65 -149 65 -152 0 -3
-63 -5 -139 -5 l-140 0 46 103 c25 56 56 126 69 156 13 30 26 52 29 50 2 -3
34 -71 70 -152z"/>
</g>
</svg>
